<?xml version="1.0" standalone="no"?>
<!DOCTYPE svg PUBLIC "-//W3C//DTD SVG 20010904//EN"
 "http://www.w3.org/TR/2001/REC-SVG-20010904/DTD/svg10.dtd">
<svg version="1.0" xmlns="http://www.w3.org/2000/svg"
 width="700.000000pt" height="700.000000pt" viewBox="0 0 700.000000 700.000000"
 preserveAspectRatio="xMidYMid meet">
<metadata>
Created by potrace 1.14, written by Peter Selinger 2001-2017
</metadata>
<g transform="translate(0.000000,700.000000) scale(0.100000,-0.100000)"
fill="#000000" stroke="none">
<path d="M790 3502 l0 -1959 465 0 465 0 1 1466 0 1466 24 -50 c13 -27 36 -77
51 -110 14 -33 42 -93 60 -133 19 -40 34 -74 34 -77 0 -2 12 -30 26 -62 15
-32 84 -186 154 -343 70 -157 248 -555 395 -885 147 -330 285 -638 305 -685
37 -82 75 -170 107 -238 8 -19 37 -84 64 -145 28 -62 59 -133 71 -158 l20 -46
460 0 460 0 8 23 c5 12 29 66 54 121 42 93 180 401 409 913 58 129 164 366
235 525 72 160 142 317 157 350 14 33 36 80 47 105 11 25 29 63 38 85 10 22
29 65 43 95 14 30 52 116 85 190 33 74 74 165 91 203 17 37 31 69 31 71 0 3
23 52 50 111 28 59 50 110 50 115 0 5 4 11 8 14 5 3 9 -641 10 -1432 0 -790 1
-1449 1 -1463 l1 -26 463 1 462 1 0 1955 0 1955 -722 3 -722 2 -7 -22 c-4 -13
-19 -50 -35 -83 -15 -33 -66 -148 -114 -255 -48 -107 -95 -213 -105 -235 -10
-22 -127 -285 -261 -585 -311 -700 -302 -679 -529 -1190 -106 -239 -196 -438
-199 -442 -5 -6 -125 251 -266 572 -23 52 -53 120 -68 150 -14 30 -37 80 -50
110 -14 30 -34 75 -45 100 -56 126 -203 453 -229 510 -17 36 -74 164 -128 285
-54 121 -113 252 -131 290 -33 71 -164 364 -289 643 l-68 152 -719 0 -718 0 0
-1958z"/>
</g>
</svg>
