<svg xmlns="http://www.w3.org/2000/svg" viewBox="0 0 521.08 79.76"><defs><style>.cls-1{fill:#fff;}.cls-2{fill:#004f99;}.cls-3{fill:#ef3e42;}</style></defs><title>RA_Masthead_2019</title><g id="Layer_2" data-name="Layer 2"><g id="Layer_1-2" data-name="Layer 1"><path class="cls-1" d="M55.36,46.25a12.89,12.89,0,0,0,3.94-1.89,8.15,8.15,0,0,0,3.6-6.67V5.26a5.27,5.27,0,0,0-1.45-3.58A5.36,5.36,0,0,0,57.53,0H5.59a5.76,5.76,0,0,0-4,1.4A5.25,5.25,0,0,0,0,5.36V37.85a8.38,8.38,0,0,0,4,6.81A13.36,13.36,0,0,0,6.4,45.93l.81.28.25.07h0l23.88,8,23.87-8Z"/><path class="cls-2" d="M60.67,21.78V5.26a3.11,3.11,0,0,0-3.14-3H5.59c-2.16,0-3.36,1.11-3.36,3.13V16.23s0,5.56,0,5.56H60.67Z"/><path class="cls-3" d="M2.24,23.66s0,6.08,0,6.07v8.06c.12,4.9,5.89,6.36,5.9,6.36L31.35,52l23.31-7.84s6-1.47,6-6.45v-14H2.24Z"/><path class="cls-2" d="M52.62,52.16a3,3,0,1,1,3,2.91A2.9,2.9,0,0,1,52.62,52.16Zm3,2.43a2.43,2.43,0,1,0-2.38-2.43A2.35,2.35,0,0,0,55.58,54.59ZM55,53.84h-.51V50.48h1.28c.79,0,1.19.3,1.19,1a.89.89,0,0,1-.87.93L57,53.84h-.56l-.88-1.46H55ZM55.57,52c.42,0,.81,0,.81-.55s-.38-.48-.71-.48H55v1Z"/><rect class="cls-2" y="58.84" width="62.9" height="1.88"/><path class="cls-2" d="M5.69,69.38v1.77c0,2.17-.94,3.35-2.86,3.35H1.92v5.11H0V66H2.83C4.75,66,5.69,67.21,5.69,69.38ZM1.92,68v4.6h.91c.61,0,.94-.31.94-1.28v-2c0-1-.33-1.28-.94-1.28Z"/><path class="cls-2" d="M9.34,79.61H7.41V66H9.34v5.82h2.18V66h2V79.61h-2V73.79H9.34Z"/><path class="cls-2" d="M21.88,79.61H19.94l-.33-2.47H17.25l-.33,2.47H15.15l2-13.59h2.81ZM17.49,75.3h1.86l-.93-6.87Z"/><path class="cls-2" d="M27.58,79.61a4.47,4.47,0,0,1-.18-1.67V75.8c0-1.26-.38-1.72-1.26-1.72h-.66v5.53H23.56V66h2.9c2,0,2.84,1,2.84,3.13v1.06c0,1.4-.4,2.31-1.25,2.76,1,.45,1.27,1.48,1.27,2.89V78a4.47,4.47,0,0,0,.21,1.65ZM25.48,68v4.18h.75c.72,0,1.15-.35,1.15-1.44V69.36c0-1-.29-1.4-1-1.4Z"/><path class="cls-2" d="M35.36,75.67,36.67,66h2.67V79.61H37.53V69.87L36.2,79.61H34.38L33,70v9.61H31.28V66H34Z"/><path class="cls-2" d="M47.76,79.61H45.82l-.33-2.47H43.13l-.33,2.47H41L43,66H45.8ZM43.37,75.3h1.85l-.92-6.87Z"/><path class="cls-2" d="M54.91,74.54v1.81c0,2.17-1,3.41-2.86,3.41s-2.87-1.24-2.87-3.41V69.28c0-2.17,1-3.41,2.87-3.41s2.86,1.24,2.86,3.41V70.6H53.1V69.15c0-1-.39-1.34-1-1.34s-1,.37-1,1.34v7.33c0,1,.38,1.32,1,1.32s1-.35,1-1.32V74.54Z"/><path class="cls-2" d="M58.56,75.1,56.13,66h2l1.47,6.19L61.08,66h1.83L60.48,75.1v4.51H58.56Z"/><polygon class="cls-1" points="24.78 5.29 28.37 5.29 28.37 18.71 24.78 18.71 24.78 5.29 24.78 5.29"/><polygon class="cls-1" points="29.51 5.29 39.86 5.29 39.86 8.29 36.45 8.29 36.45 18.71 32.96 18.71 32.96 8.29 29.51 8.29 29.51 5.29 29.51 5.29"/><polygon class="cls-1" points="50.23 10.62 50.23 13.46 44.27 13.46 44.27 15.86 51.28 15.86 51.28 18.71 41 18.71 41 5.29 51.28 5.29 51.28 8.29 44.27 8.29 44.27 10.62 50.23 10.62 50.23 10.62"/><path class="cls-1" d="M11.62,5.31h7.06c3.44,0,4.85,2,4.85,4.6A4.45,4.45,0,0,1,20.65,14s3.11,4.79,3.05,4.74H19.44s-5.22-7-5.23-7h3.84a1.78,1.78,0,1,0,0-3.53H14.87V18.73H11.62V5.31Z"/><path class="cls-1" d="M23.26,28.05H20.32l-6,13.41h4l.8-2h5.37l.73,2h4Zm-3.17,8.86L21.7,32.1h.18l1.61,4.81Z"/><rect class="cls-1" x="30.26" y="28.05" width="3.7" height="13.42"/><path class="cls-1" d="M47.21,30.55c-1.94-2.5-5-2.5-6.63-2.5H35.65V41.46h5.22c6.71,0,7.71-4.22,7.71-6.74A6.31,6.31,0,0,0,47.21,30.55Zm-6.11,8H39.36V30.93h1.76a3.36,3.36,0,0,1,3,1.28,4.47,4.47,0,0,1,.75,2.56C44.88,36.51,44.22,38.58,41.1,38.58Z"/><polygon class="cls-2" points="154.77 1.94 175.5 1.94 175.5 79.63 154.77 79.63 154.77 1.94 154.77 1.94"/><polygon class="cls-2" points="182.1 1.94 242.04 1.94 242.04 19.36 222.31 19.36 222.31 79.63 202.08 79.63 202.08 19.36 182.1 19.36 182.1 1.94 182.1 1.94"/><polygon class="cls-2" points="302.09 32.81 302.09 49.26 267.56 49.26 267.56 63.16 308.17 63.16 308.17 79.63 248.64 79.63 248.64 1.94 308.17 1.94 308.17 19.36 267.56 19.36 267.56 32.81 302.09 32.81 302.09 32.81"/><path class="cls-2" d="M78.54,2.1h40.91c19.88,0,28,11.41,28,26.59a25.86,25.86,0,0,1-16.63,23.67c.1,0,18,27.67,17.63,27.4H123.81c.07,0-30.18-40.8-30.25-40.81h22.21c2.46,0,11.51-.4,11.56-10S119.21,18.5,115.76,18.5H97.37V79.76H78.54V2.1Z"/><path class="cls-2" d="M374.5,2h-17L322.71,79.62h23l4.61-11.37h31.1l4.26,11.37H408.9ZM356.14,53.28l9.32-27.85h1l9.33,27.85Z"/><rect class="cls-2" x="415" y="1.96" width="21.43" height="77.66"/><path class="cls-2" d="M513.14,16.44C501.91,2,484.26,2,474.77,2H446.23V79.62h30.2c38.85,0,44.65-24.46,44.65-39.05C521.08,30.92,518.49,23,513.14,16.44Zm-35.4,46.5H467.66V18.63h10.2c10.68,0,15.06,4.24,17.43,7.42a25.92,25.92,0,0,1,4.36,14.84C499.65,51,495.85,62.94,477.74,62.94Z"/></g></g></svg>