<?xml version="1.0" encoding="utf-8"?>
<!-- Generator: Adobe Illustrator 25.4.1, SVG Export Plug-In . SVG Version: 6.00 Build 0)  -->
<svg version="1.1" id="Layer_1" xmlns="http://www.w3.org/2000/svg" xmlns:xlink="http://www.w3.org/1999/xlink" x="0px" y="0px"
	 viewBox="0 0 720 149.06" style="enable-background:new 0 0 720 149.06;" xml:space="preserve">
<style type="text/css">
	.st0{clip-path:url(#SVGID_00000074441353031007586650000002710027208141147549_);}
	.st1{clip-path:url(#SVGID_00000121989666158847265000000006072217178779551665_);fill:#E42B25;}
</style>
<g id="WAG_x5F_BrandRed_x5F_RGB_1_">
	<g>
		<defs>
			<rect id="SVGID_1_" x="0" width="720" height="149.06"/>
		</defs>
		<clipPath id="SVGID_00000074433960278772804270000010507496528979866533_">
			<use xlink:href="#SVGID_1_"  style="overflow:visible;"/>
		</clipPath>
		<g style="clip-path:url(#SVGID_00000074433960278772804270000010507496528979866533_);">
			<defs>
				<rect id="SVGID_00000119837380626155252050000007929146885751584690_" x="0" width="720" height="149.06"/>
			</defs>
			<clipPath id="SVGID_00000167380407543947706800000014160069962051293588_">
				<use xlink:href="#SVGID_00000119837380626155252050000007929146885751584690_"  style="overflow:visible;"/>
			</clipPath>
			<path style="clip-path:url(#SVGID_00000167380407543947706800000014160069962051293588_);fill:#E42B25;" d="M683.81,87.89
				c13.57-17.04-4.21-41.94,15-48.69c-0.44-4.79-4.93-7.65-10.66-7.65c-5.16,0-10.68,2.82-14.22,7.38
				c-20.24,26.11-41.25,46.23-53.27,46.23c-4,0-5.41-1.84-5.41-4.98c0-9.74,12.23-24.02,21.64-33.98c1.19-1.3,1.73-2.6,1.73-3.79
				c0-2.92-3.35-4.87-7.47-4.87c-10.34,0-31.8,16.36-47.66,31.3c5.68-10.73,11.98-19.27,11.98-23.89c0-4.87-5.09-6.28-10.93-6.17
				c-22.64,30.09-51.68,52.32-70.33,52.32c-4.83,0-8.05-1.63-10.07-4.04c23.74-9.7,43.57-25.91,43.57-37.87
				c0-7.41-6.21-10.71-14.92-10.71c-22.36,0-50.64,23.79-52.04,47.6c-21.54,7.75-37.59,6.37-42.55,1
				c23.74-9.7,43.57-25.91,43.57-37.87c0-7.41-6.22-10.71-14.92-10.71c-22.55,0-51.13,24.2-52.08,48.22
				c-10.79,3.32-23.05,4.77-23.05-4.12c0-14.67,21.97-26.71,21.97-36.47c0-2.71-1.19-4.98-3.25-6.17c-7.01,3.61-17.42,6.6-25,6.6
				c1.95-6.06-0.11-10.82-6.06-10.82c-8.77,0-15.45,9.85-15.45,17.86c0,3.51,1.3,5.96,3.42,7.57c-8.69,11.7-19.71,22.4-34.57,30.9
				c4.44-9.2,7.87-19.1,12.64-33.09c11.53-6.8,17.38-20.65-5.85-20.65c-19.04,0-40.08,11.44-53.24,26.83
				c-17.19,20.1-38.11,31.32-41.83,16.07C272.9,59.93,299.29,29.75,299,14.72c-0.1-5.44-3.34-9.13-10.95-9.13
				c-18.02,0-60.03,40.96-63.6,77.41c-30.08,16.11-26.67-9.27-17.48-22.62c13.36-6.86,22.61-22.01-2.31-22.01
				c-36.16,0-65.93,33.63-65.43,55.14c0.15,6.37,3.35,11.62,10.11,11.63c7.75,0.01,20.19-5.37,33.3-18.91
				c-2.52,12.97,0.48,18.91,11.11,18.91c8.64,0,19.72-4.35,31.42-11.08c1.94,6.05,6.99,11.08,16.92,11.08
				c10.3,0,22.99-8.11,32.93-18.58c-0.51,2.32-0.78,4.65-0.78,6.96c0,7.52,4.04,11.61,10.03,11.62c6.75,0.01,16.86-5.36,27.99-15.86
				c-1.75,4.78-3.75,9.64-6.11,14.38c-23.95,8.46-48.65,17.61-48.65,34.19c0,7.03,5.83,11.22,13.19,11.22
				c17.95,0,40.01-21.44,53.79-42.36c17.07-7.65,36.93-22.14,52.26-42.86c3.99,0.1,8.41-0.59,12.49-1.66
				c-13.1,13.92-19.16,22.94-19.16,31.71c0,7.25,5.52,11.25,15.26,11.25c8.5,0,19.18-3.01,31.81-8.57
				c3.69,5.66,11.39,8.57,21.29,8.57c14.76,0,31.1-5.04,43.76-10.27c2.81,5.98,9.56,10.27,20.39,10.27
				c22.02,0,41.93-13.97,58.74-28.94c-7.59,11.55-18.88,28.94-3.01,28.94c2.49,0,5.99-0.4,8.87-1.36
				c11.25-20.56,25.87-33.87,40.48-42.64c-12.01,14.93-16.99,26.3-16.99,33.65c0,6.82,4.22,10.34,11.14,10.34
				c21.09,0,45.87-21.68,67.21-46.5c1.09,9.48,6.87,19.65-3.24,28.48c-15.27-0.36-23.81,4.04-23.8,11.21
				c0.01,4.41,3.71,6.82,8.93,6.82c5.31,0,10.53-1.54,15.37-3.92c8.55,2.48,17.39,5.14,27.71,5.14c15.05,0,25.65-7.56,25.99-20.08
				C711.37,90.79,697.46,89.09,683.81,87.89 M278.24,22.06c1.73,0,2.49,0.87,2.49,2.49c0,7.47-17.86,30.62-35.82,45.23
				C249.45,53.87,269.79,22.06,278.24,22.06 M156.04,79.66c0-12.6,19.59-27.51,35.28-27.51c3.16,0,6.14,0.52,8.71,1.66
				C181.06,83.67,156.04,93.48,156.04,79.66 M273.9,139.8c-1.76,0-2.88-0.88-2.88-2.74c0-4.06,7.98-14.63,28.97-22.19
				C291.07,129.45,280.69,139.8,273.9,139.8 M290.98,79.66c0-13.05,19.83-27.46,35.18-27.46c3.04,0,6.09,0.51,8.8,1.62
				C316.95,82.54,290.98,93.96,290.98,79.66 M460.38,50.61c2.28,0,3.77,0.98,3.77,3.3c0,6.06-12.81,16.86-28.71,24.54
				C435.44,67.51,452.07,50.61,460.38,50.61 M501.39,78.42c0-10.94,16.62-27.84,24.94-27.84c2.28,0,3.77,0.98,3.77,3.3
				C530.1,59.94,517.29,70.74,501.39,78.42"/>
			<path style="clip-path:url(#SVGID_00000167380407543947706800000014160069962051293588_);fill:#E42B25;" d="M151.19,0
				c-6.75-0.04-13.26,4.05-17.48,10.18c19.93,13.03-4.49,77.92-40.5,77.92c-4.32,0-7.98-1.26-10.43-3.82
				c19.5-17.56,33.58-41.44,33.58-55.53c0-7.2-3.52-11.77-11.76-11.77c-23.92,0-49.14,39.25-44.46,67.56
				C45.05,89.9,37.56,83.2,37.56,69.74c0-28.1,29.37-57.25,27.66-66.02C34.79,13.12,10.98-8.74,0,26.83
				c14.79-8.05,28.44,4.82,45.32-4.59C30.83,38.96,16.2,62.63,16.4,82.62c0.13,13.08,7.2,22.52,22.5,22.52
				c8.69,0,17.71-3.04,26.39-8.01c3.72,4.65,9.71,8.01,18.88,8.01c37.36,0,78.18-52.49,78.18-89.94
				C162.35,5.26,158.41,0.04,151.19,0 M79.32,72.17c0.32-20.24,14.61-41.5,21.86-41.5c2.14,0,2.6,1.39,2.6,2.87
				C103.77,40.46,93.49,58.97,79.32,72.17"/>
		</g>
	</g>
</g>
</svg>
