<?xml version="1.0" encoding="utf-8"?>
<!-- Generator: Adobe Illustrator 24.0.2, SVG Export Plug-In . SVG Version: 6.00 Build 0)  -->
<svg version="1.1" id="_x2014_ÎÓÈ_x5F_1" xmlns="http://www.w3.org/2000/svg" xmlns:xlink="http://www.w3.org/1999/xlink"
	 x="0px" y="0px" viewBox="0 0 34.2 34.3" style="enable-background:new 0 0 34.2 34.3;" xml:space="preserve">
<style type="text/css">
	.st0{fill:none;stroke:#000000;stroke-width:2;stroke-miterlimit:10;}
	.st1{fill:none;stroke:#000000;stroke-width:2;stroke-linecap:round;stroke-linejoin:round;}
</style>
<path class="st0" d="M29.1,32.4l-9.7-9.7c-0.1-0.1-0.1-0.1-0.2-0.2C14.7,25.5,8.6,25,4.6,21c-4.5-4.5-4.5-11.9,0-16.5
	s11.9-4.5,16.5,0c4,4,4.5,10.1,1.5,14.6c0.1,0.1,0.1,0.1,0.2,0.2l9.7,9.7c0.5,0.5,0.7,1.1,0.7,1.7c0,0.6-0.2,1.2-0.7,1.7
	C31.6,33.4,30,33.4,29.1,32.4z"/>
<line class="st1" x1="22.6" y1="19.1" x2="19.2" y2="22.5"/>
</svg>
