<?xml version="1.0" encoding="utf-8"?>
<!-- Generator: Adobe Illustrator 25.4.1, SVG Export Plug-In . SVG Version: 6.00 Build 0)  -->
<svg version="1.1" xmlns="http://www.w3.org/2000/svg" xmlns:xlink="http://www.w3.org/1999/xlink" x="0px" y="0px"
	 viewBox="0 0 808.22 768.67" style="enable-background:new 0 0 808.22 768.67;" xml:space="preserve">
<style type="text/css">
	.st0{fill:#FEE12C;}
	.st1{fill:#FDC240;}
</style>
<g id="Layer_1">
	<path class="st0" d="M404.11,226.74l28.73,88.67l15.68,48.39l50.86-0.04l93.21-0.08l-75.45,54.72l-41.17,29.86l15.76,48.36
		l28.88,88.62l-75.36-54.85l-41.12-29.93l-41.12,29.93l-75.36,54.85l28.88-88.62l15.76-48.36l-41.17-29.86l-75.45-54.72l93.21,0.08
		l50.86,0.04l15.68-48.39L404.11,226.74 M404.11,0l-95.2,293.87L0,293.6l250.07,181.36l-95.71,293.71l249.75-181.79l249.75,181.79
		l-95.71-293.71L808.22,293.6l-308.91,0.27L404.11,0L404.11,0z"/>
</g>
<g id="Layer_1_copy">
	<path class="st1" d="M404.11,111.71l44.81,138.33l24.45,75.48l79.35-0.07l145.4-0.13l-117.71,85.36l-64.23,46.58l24.58,75.44
		l45.05,138.25l-117.56-85.57l-64.15-46.69l-64.15,46.69L222.4,670.96l45.05-138.25l24.58-75.44l-64.23-46.58L110.1,325.32
		l145.4,0.13l79.35,0.07l24.45-75.48L404.11,111.71"/>
</g>
</svg>
