<?xml version="1.0" encoding="utf-8"?>
<!-- Generator: Adobe Illustrator 27.2.0, SVG Export Plug-In . SVG Version: 6.00 Build 0)  -->
<svg version="1.1" id="Layer_1" xmlns="http://www.w3.org/2000/svg" xmlns:xlink="http://www.w3.org/1999/xlink" x="0px" y="0px"
	 viewBox="0 0 520 520" style="enable-background:new 0 0 520 520;" xml:space="preserve">
<style type="text/css">
	.st0{fill:#FFFFFF;stroke:#FFFFFF;}
	
		.st1{clip-path:url(#SVGID_00000052822061205334848220000006458038288990463637_);fill:url(#SVGID_00000094605201558074473530000016032811271485289637_);}
	
		.st2{clip-path:url(#SVGID_00000058552468777405344780000009521877009120331704_);fill:url(#SVGID_00000044878383257259389000000009586184310305435274_);}
	
		.st3{clip-path:url(#SVGID_00000149369496191733310780000005984423096874733242_);fill:url(#SVGID_00000056417179966294626410000017480211031737163929_);}
	
		.st4{clip-path:url(#SVGID_00000164482266299044926420000016478612680841294233_);fill:url(#SVGID_00000006691973576317617620000008743747957578305206_);}
	
		.st5{clip-path:url(#SVGID_00000086657381581725121510000006895537896684672405_);fill:url(#SVGID_00000170967541073447617100000012240157698170735001_);}
	
		.st6{clip-path:url(#SVGID_00000103982181091697912060000001572755826295807422_);fill:url(#SVGID_00000106841294179427295910000017905331225672740519_);}
	
		.st7{clip-path:url(#SVGID_00000077324601475561445630000003008943403128480179_);fill:url(#SVGID_00000015347469636436486790000015436075848870242740_);}
	
		.st8{clip-path:url(#SVGID_00000066473888834527176120000005280649021988282797_);fill:url(#SVGID_00000154419186363313373670000006227122339059053757_);}
	.st9{fill:#FFC429;}
</style>
<rect x="0.5" y="0.5" class="st0" width="520" height="520"/>
<g>
	<g>
		<defs>
			<polygon id="SVGID_1_" points="83.6,264.2 83.6,279 64.2,279 64.2,324.2 46,324.2 46,279 26.5,279 26.5,264.2 			"/>
		</defs>
		<clipPath id="SVGID_00000067227003839833494090000007381961002292354488_">
			<use xlink:href="#SVGID_1_"  style="overflow:visible;"/>
		</clipPath>
		
			<linearGradient id="SVGID_00000119820878457320834270000015161435661299603093_" gradientUnits="userSpaceOnUse" x1="568.1271" y1="233.3117" x2="569.9645" y2="233.3117" gradientTransform="matrix(0 79.1583 -79.1583 0 18523.6504 -44732.082)">
			<stop  offset="0" style="stop-color:#989A9D"/>
			<stop  offset="0.1649" style="stop-color:#ECEDEF"/>
			<stop  offset="0.2067" style="stop-color:#E4E5E7"/>
			<stop  offset="0.2728" style="stop-color:#CDCED1"/>
			<stop  offset="0.3544" style="stop-color:#A8AAAD"/>
			<stop  offset="0.3862" style="stop-color:#989A9D"/>
			<stop  offset="0.459" style="stop-color:#F6F6F6"/>
			<stop  offset="0.7117" style="stop-color:#989A9D"/>
			<stop  offset="0.8377" style="stop-color:#FFFFFF"/>
			<stop  offset="1" style="stop-color:#989A9D"/>
		</linearGradient>
		
			<rect x="26.5" y="264.2" style="clip-path:url(#SVGID_00000067227003839833494090000007381961002292354488_);fill:url(#SVGID_00000119820878457320834270000015161435661299603093_);" width="57.1" height="60"/>
	</g>
</g>
<g>
	<g>
		<defs>
			<rect id="SVGID_00000093154591419582978450000014492245792527268753_" x="93.1" y="264.2" width="18.2" height="60"/>
		</defs>
		<clipPath id="SVGID_00000114053582389383746630000014298245596641334945_">
			<use xlink:href="#SVGID_00000093154591419582978450000014492245792527268753_"  style="overflow:visible;"/>
		</clipPath>
		
			<linearGradient id="SVGID_00000177465754712650630170000009383242918741707151_" gradientUnits="userSpaceOnUse" x1="568.1271" y1="233.0403" x2="569.9645" y2="233.0403" gradientTransform="matrix(0 79.1583 -79.1583 0 18549.3086 -44732.082)">
			<stop  offset="0" style="stop-color:#989A9D"/>
			<stop  offset="0.1649" style="stop-color:#ECEDEF"/>
			<stop  offset="0.2067" style="stop-color:#E4E5E7"/>
			<stop  offset="0.2728" style="stop-color:#CDCED1"/>
			<stop  offset="0.3544" style="stop-color:#A8AAAD"/>
			<stop  offset="0.3862" style="stop-color:#989A9D"/>
			<stop  offset="0.459" style="stop-color:#F6F6F6"/>
			<stop  offset="0.7117" style="stop-color:#989A9D"/>
			<stop  offset="0.8377" style="stop-color:#FFFFFF"/>
			<stop  offset="1" style="stop-color:#989A9D"/>
		</linearGradient>
		
			<rect x="93.1" y="264.2" style="clip-path:url(#SVGID_00000114053582389383746630000014298245596641334945_);fill:url(#SVGID_00000177465754712650630170000009383242918741707151_);" width="18.2" height="60"/>
	</g>
</g>
<g>
	<g>
		<defs>
			<polygon id="SVGID_00000152954608887639944930000004137228496916952984_" points="176.3,264.2 176.3,279 156.8,279 156.8,324.2 
				138.6,324.2 138.6,279 119.2,279 119.2,264.2 			"/>
		</defs>
		<clipPath id="SVGID_00000062179034302919658510000008937233178593498283_">
			<use xlink:href="#SVGID_00000152954608887639944930000004137228496916952984_"  style="overflow:visible;"/>
		</clipPath>
		
			<linearGradient id="SVGID_00000023239795151683489290000012370073317712179380_" gradientUnits="userSpaceOnUse" x1="568.1271" y1="232.7783" x2="569.9645" y2="232.7783" gradientTransform="matrix(0 79.1583 -79.1583 0 18574.0664 -44732.082)">
			<stop  offset="0" style="stop-color:#989A9D"/>
			<stop  offset="0.1649" style="stop-color:#ECEDEF"/>
			<stop  offset="0.2067" style="stop-color:#E4E5E7"/>
			<stop  offset="0.2728" style="stop-color:#CDCED1"/>
			<stop  offset="0.3544" style="stop-color:#A8AAAD"/>
			<stop  offset="0.3862" style="stop-color:#989A9D"/>
			<stop  offset="0.459" style="stop-color:#F6F6F6"/>
			<stop  offset="0.7117" style="stop-color:#989A9D"/>
			<stop  offset="0.8377" style="stop-color:#FFFFFF"/>
			<stop  offset="1" style="stop-color:#989A9D"/>
		</linearGradient>
		
			<rect x="119.2" y="264.2" style="clip-path:url(#SVGID_00000062179034302919658510000008937233178593498283_);fill:url(#SVGID_00000023239795151683489290000012370073317712179380_);" width="57.1" height="60"/>
	</g>
</g>
<g>
	<g>
		<defs>
			<path id="SVGID_00000011740840885430543940000015571052197546322845_" d="M168.3,324.2l22.3-60h22.2l22.3,60h-19l-2.9-7.9h-23
				l-2.9,7.9H168.3z M208.5,303l-6.8-19.8l-6.8,19.8H208.5z"/>
		</defs>
		<clipPath id="SVGID_00000167396193581407388700000012882177520417150122_">
			<use xlink:href="#SVGID_00000011740840885430543940000015571052197546322845_"  style="overflow:visible;"/>
		</clipPath>
		
			<linearGradient id="SVGID_00000053514095924075670720000004608850946481145523_" gradientUnits="userSpaceOnUse" x1="568.1271" y1="232.4675" x2="569.9645" y2="232.4675" gradientTransform="matrix(0 79.1583 -79.1583 0 18603.4473 -44732.082)">
			<stop  offset="0" style="stop-color:#989A9D"/>
			<stop  offset="0.1649" style="stop-color:#ECEDEF"/>
			<stop  offset="0.2067" style="stop-color:#E4E5E7"/>
			<stop  offset="0.2728" style="stop-color:#CDCED1"/>
			<stop  offset="0.3544" style="stop-color:#A8AAAD"/>
			<stop  offset="0.3862" style="stop-color:#989A9D"/>
			<stop  offset="0.459" style="stop-color:#F6F6F6"/>
			<stop  offset="0.7117" style="stop-color:#989A9D"/>
			<stop  offset="0.8377" style="stop-color:#FFFFFF"/>
			<stop  offset="1" style="stop-color:#989A9D"/>
		</linearGradient>
		
			<rect x="168.3" y="264.2" style="clip-path:url(#SVGID_00000167396193581407388700000012882177520417150122_);fill:url(#SVGID_00000053514095924075670720000004608850946481145523_);" width="66.8" height="60"/>
	</g>
</g>
<g>
	<g>
		<defs>
			<polygon id="SVGID_00000124853528975077506770000009272853241155051175_" points="257.7,324.2 239.5,324.2 239.5,264.2 
				257.7,264.2 279.2,293 279.2,264.2 297.4,264.2 297.4,324.2 282.3,324.2 257.7,292 			"/>
		</defs>
		<clipPath id="SVGID_00000034796942702454330270000017337407564751157417_">
			<use xlink:href="#SVGID_00000124853528975077506770000009272853241155051175_"  style="overflow:visible;"/>
		</clipPath>
		
			<linearGradient id="SVGID_00000155126958250873911020000011772161037924476818_" gradientUnits="userSpaceOnUse" x1="568.1271" y1="232.0831" x2="569.9645" y2="232.0831" gradientTransform="matrix(0 79.1583 -79.1583 0 18639.7793 -44732.082)">
			<stop  offset="0" style="stop-color:#989A9D"/>
			<stop  offset="0.1649" style="stop-color:#ECEDEF"/>
			<stop  offset="0.2067" style="stop-color:#E4E5E7"/>
			<stop  offset="0.2728" style="stop-color:#CDCED1"/>
			<stop  offset="0.3544" style="stop-color:#A8AAAD"/>
			<stop  offset="0.3862" style="stop-color:#989A9D"/>
			<stop  offset="0.459" style="stop-color:#F6F6F6"/>
			<stop  offset="0.7117" style="stop-color:#989A9D"/>
			<stop  offset="0.8377" style="stop-color:#FFFFFF"/>
			<stop  offset="1" style="stop-color:#989A9D"/>
		</linearGradient>
		
			<rect x="239.5" y="264.2" style="clip-path:url(#SVGID_00000034796942702454330270000017337407564751157417_);fill:url(#SVGID_00000155126958250873911020000011772161037924476818_);" width="57.9" height="60"/>
	</g>
</g>
<g>
	<g>
		<defs>
			<rect id="SVGID_00000107566549267801644140000002216402148075005841_" x="307.7" y="264.2" width="18.2" height="60"/>
		</defs>
		<clipPath id="SVGID_00000138563194898890820410000005131111404637278596_">
			<use xlink:href="#SVGID_00000107566549267801644140000002216402148075005841_"  style="overflow:visible;"/>
		</clipPath>
		
			<linearGradient id="SVGID_00000112609212282509813190000015971176735082464645_" gradientUnits="userSpaceOnUse" x1="568.1271" y1="231.8046" x2="569.9645" y2="231.8046" gradientTransform="matrix(0 79.1583 -79.1583 0 18666.1113 -44732.082)">
			<stop  offset="0" style="stop-color:#989A9D"/>
			<stop  offset="0.1649" style="stop-color:#ECEDEF"/>
			<stop  offset="0.2067" style="stop-color:#E4E5E7"/>
			<stop  offset="0.2728" style="stop-color:#CDCED1"/>
			<stop  offset="0.3544" style="stop-color:#A8AAAD"/>
			<stop  offset="0.3862" style="stop-color:#989A9D"/>
			<stop  offset="0.459" style="stop-color:#F6F6F6"/>
			<stop  offset="0.7117" style="stop-color:#989A9D"/>
			<stop  offset="0.8377" style="stop-color:#FFFFFF"/>
			<stop  offset="1" style="stop-color:#989A9D"/>
		</linearGradient>
		
			<rect x="307.7" y="264.2" style="clip-path:url(#SVGID_00000138563194898890820410000005131111404637278596_);fill:url(#SVGID_00000112609212282509813190000015971176735082464645_);" width="18.2" height="60"/>
	</g>
</g>
<g>
	<g>
		<defs>
			<polygon id="SVGID_00000027582549775417029280000000881586321931536786_" points="354.6,264.2 354.6,307.7 356.3,309.3 
				374.5,309.3 376.2,307.7 376.2,264.2 394.5,264.2 394.5,317.6 387.9,324.2 342.9,324.2 336.3,317.6 336.3,264.2 			"/>
		</defs>
		<clipPath id="SVGID_00000165954328996644692390000007598559815358711682_">
			<use xlink:href="#SVGID_00000027582549775417029280000000881586321931536786_"  style="overflow:visible;"/>
		</clipPath>
		
			<linearGradient id="SVGID_00000139261303056577507480000015730953522265731714_" gradientUnits="userSpaceOnUse" x1="568.1271" y1="231.5251" x2="569.9645" y2="231.5251" gradientTransform="matrix(0 79.1583 -79.1583 0 18692.5293 -44732.082)">
			<stop  offset="0" style="stop-color:#989A9D"/>
			<stop  offset="0.1649" style="stop-color:#ECEDEF"/>
			<stop  offset="0.2067" style="stop-color:#E4E5E7"/>
			<stop  offset="0.2728" style="stop-color:#CDCED1"/>
			<stop  offset="0.3544" style="stop-color:#A8AAAD"/>
			<stop  offset="0.3862" style="stop-color:#989A9D"/>
			<stop  offset="0.459" style="stop-color:#F6F6F6"/>
			<stop  offset="0.7117" style="stop-color:#989A9D"/>
			<stop  offset="0.8377" style="stop-color:#FFFFFF"/>
			<stop  offset="1" style="stop-color:#989A9D"/>
		</linearGradient>
		
			<rect x="336.3" y="264.2" style="clip-path:url(#SVGID_00000165954328996644692390000007598559815358711682_);fill:url(#SVGID_00000139261303056577507480000015730953522265731714_);" width="58.3" height="60"/>
	</g>
</g>
<g>
	<g>
		<defs>
			<polygon id="SVGID_00000135657908558915280570000018250759741602113209_" points="441.5,324.5 422.5,291.9 422.5,324.2 
				404.4,324.2 404.4,264.2 427,264.2 441.5,290.1 456,264.2 478.6,264.2 478.6,324.2 460.5,324.2 460.5,291.9 			"/>
		</defs>
		<clipPath id="SVGID_00000090285776199600604890000016692403416962468793_">
			<use xlink:href="#SVGID_00000135657908558915280570000018250759741602113209_"  style="overflow:visible;"/>
		</clipPath>
		
			<linearGradient id="SVGID_00000070804802062787567100000018347270118063184063_" gradientUnits="userSpaceOnUse" x1="568.1271" y1="231.087" x2="569.9645" y2="231.087" gradientTransform="matrix(0 79.1583 -79.1583 0 18733.9512 -44732.082)">
			<stop  offset="0" style="stop-color:#989A9D"/>
			<stop  offset="0.1649" style="stop-color:#ECEDEF"/>
			<stop  offset="0.2067" style="stop-color:#E4E5E7"/>
			<stop  offset="0.2728" style="stop-color:#CDCED1"/>
			<stop  offset="0.3544" style="stop-color:#A8AAAD"/>
			<stop  offset="0.3862" style="stop-color:#989A9D"/>
			<stop  offset="0.459" style="stop-color:#F6F6F6"/>
			<stop  offset="0.7117" style="stop-color:#989A9D"/>
			<stop  offset="0.8377" style="stop-color:#FFFFFF"/>
			<stop  offset="1" style="stop-color:#989A9D"/>
		</linearGradient>
		
			<rect x="404.4" y="264.2" style="clip-path:url(#SVGID_00000090285776199600604890000016692403416962468793_);fill:url(#SVGID_00000070804802062787567100000018347270118063184063_);" width="74.2" height="60.3"/>
	</g>
</g>
<polygon class="st9" points="76.1,249.1 67.6,249.1 67.6,222.1 55.5,249.1 47.1,249.1 35.1,222.1 35.1,249.1 26.5,249.1 26.5,213.2 
	39.7,213.2 51.4,239.1 62.9,213.2 76.1,213.2 "/>
<rect x="85" y="213.2" class="st9" width="9.4" height="36"/>
<g>
	<path class="st9" d="M136.4,224.8c-1.1-1.8-1.7-2.5-3-3.5c-2.1-1.6-5.3-2.5-8.5-2.5c-8,0-13.4,5-13.4,12.3
		c0,7.6,5.4,12.5,13.6,12.5c5.9,0,9.7-2.2,12-6.7h9.7c-1.5,4.4-2.6,6-5.8,8.6c-4.1,3.3-9.1,4.8-16.1,4.8c-14.3,0-23-7.2-23-19.3
		c0-11.7,8.7-18.9,22.9-18.9c10.7,0,17.9,3.8,21.8,11.6L136.4,224.8z"/>
	<path class="st9" d="M162.6,249.1h-9.4v-36h25.1c4.3,0,6.5,0.3,8.6,1.4c1.1,0.5,2.2,1.3,3.1,2.4c1.6,1.9,2.4,4.2,2.4,7.1
		c0,5.8-3.2,9.2-9.8,10.3l10.8,14.9h-10.8l-9.6-14.3h-10.5L162.6,249.1L162.6,249.1z M176.6,228.4c4.5,0,6.5-1.4,6.5-4.4
		c0-2.8-1.8-4.2-5.5-4.2h-15.1v8.6H176.6z"/>
	<path class="st9" d="M220.4,250.3c-13.9,0-23-7.5-23-19.1c0-11.6,9.1-19.2,23-19.2c13.9,0,23,7.6,23,19.2
		C243.4,242.8,234.3,250.3,220.4,250.3 M220.4,218.7c-8.1,0-13.3,4.8-13.3,12.4s5.2,12.4,13.3,12.4c8.2,0,13.3-4.8,13.3-12.4
		S228.5,218.7,220.4,218.7"/>
	<polygon class="st9" points="283.5,220.1 269.9,220.1 269.9,249.1 260.5,249.1 260.5,220.1 246.8,220.1 246.8,213.2 283.5,213.2 	
		"/>
	<path class="st9" d="M310,250.3c-13.9,0-23-7.5-23-19.1c0-11.6,9.1-19.2,23-19.2s23,7.6,23,19.2C333,242.8,323.9,250.3,310,250.3
		 M310,218.7c-8.1,0-13.3,4.8-13.3,12.4s5.2,12.4,13.3,12.4c8.2,0,13.3-4.8,13.3-12.4S318.1,218.7,310,218.7"/>
	<path class="st9" d="M380.5,234.1c0,5-0.8,7.6-3.1,10.2c-1.5,1.6-3.2,2.9-5.1,3.7c-3.3,1.4-7.7,2.2-11.9,2.2
		c-7.6,0-13.7-2.1-17.1-5.9c-2.4-2.7-3.1-5.2-3.1-10.2v-20.9h9.4v21.3c0,3.7,1.1,5.9,3.7,7.1c1.9,0.9,4.6,1.5,7.1,1.5
		c4.2,0,7.9-1.4,9.4-3.5c0.9-1.3,1.3-2.8,1.3-5.1v-21.3h9.4L380.5,234.1L380.5,234.1z"/>
	<path class="st9" d="M422.1,224.8c-1.1-1.8-1.7-2.5-3-3.5c-2.1-1.6-5.3-2.5-8.5-2.5c-8,0-13.4,5-13.4,12.3
		c0,7.6,5.4,12.5,13.6,12.5c5.9,0,9.7-2.2,12-6.7h9.7c-1.5,4.4-2.6,6-5.8,8.6c-4.1,3.3-9.1,4.8-16.1,4.8c-14.3,0-23-7.2-23-19.3
		c0-11.7,8.7-18.9,22.9-18.9c10.7,0,17.9,3.8,21.8,11.6L422.1,224.8z"/>
	<polygon class="st9" points="479.5,249.1 470.1,249.1 470.1,233.9 448.3,233.9 448.3,249.1 438.8,249.1 438.8,213.2 448.3,213.2 
		448.3,227 470.1,227 470.1,213.2 479.5,213.2 	"/>
	<path class="st9" d="M490.6,226.8c-3.9,0-7-3.2-7-7c0-3.8,3.1-7,7-7c3.9,0,7,3.2,7,7C497.7,223.6,494.6,226.8,490.6,226.8
		 M490.7,213.3c-3.6,0-6.4,2.9-6.4,6.4c0,3.5,2.7,6.4,6.4,6.4c3.6,0,6.4-2.9,6.4-6.4C497,216.2,494.3,213.3,490.7,213.3 M492,220.2
		l2.2,2.9h-1.3l-2.1-2.7H489v2.7h-1.1v-7.2h3.2c1.6,0,2.7,0.8,2.7,2.2C493.8,219.3,493.1,220,492,220.2 M491.1,216.9H489v2.6h2.1
		c1,0,1.7-0.5,1.7-1.3C492.7,217.4,492.1,216.9,491.1,216.9"/>
</g>
</svg>
