<?xml version="1.0" encoding="UTF-8"?><svg id="Layer_1" xmlns="http://www.w3.org/2000/svg" xmlns:xlink="http://www.w3.org/1999/xlink" viewBox="0 0 1470.81 351.18"><defs><clipPath id="clippath"><polygon points="178.28 162.85 178.28 209.16 117.57 209.16 117.57 350.15 60.72 350.15 60.72 209.16 0 209.16 0 162.85 178.28 162.85" style="fill:none;"/></clipPath><linearGradient id="linear-gradient" x1="988.7474" y1="300.553" x2="994.4833" y2="300.553" gradientTransform="translate(23880.4037 -78180.4946) rotate(90) scale(79.1583)" gradientUnits="userSpaceOnUse"><stop offset="0" stop-color="#989a9d"/><stop offset=".1649" stop-color="#ecedef"/><stop offset=".2067" stop-color="#e4e5e7"/><stop offset=".2728" stop-color="#cdced1"/><stop offset=".3544" stop-color="#a8aaad"/><stop offset=".3862" stop-color="#989a9d"/><stop offset=".459" stop-color="#f6f6f6"/><stop offset=".7117" stop-color="#989a9d"/><stop offset=".8377" stop-color="#fff"/><stop offset="1" stop-color="#989a9d"/></linearGradient><clipPath id="clippath-1"><rect x="207.88" y="162.85" width="56.85" height="187.3" style="fill:none;"/></clipPath><linearGradient id="linear-gradient-2" x1="988.7474" y1="299.018" x2="994.4833" y2="299.018" gradientTransform="translate(23906.0619 -78180.4946) rotate(90) scale(79.1583)" gradientUnits="userSpaceOnUse"><stop offset="0" stop-color="#989a9d"/><stop offset=".1649" stop-color="#ecedef"/><stop offset=".2067" stop-color="#e4e5e7"/><stop offset=".2728" stop-color="#cdced1"/><stop offset=".3544" stop-color="#a8aaad"/><stop offset=".3862" stop-color="#989a9d"/><stop offset=".459" stop-color="#f6f6f6"/><stop offset=".7117" stop-color="#989a9d"/><stop offset=".8377" stop-color="#fff"/><stop offset="1" stop-color="#989a9d"/></linearGradient><clipPath id="clippath-2"><polygon points="467.46 162.85 467.46 209.16 406.75 209.16 406.75 350.15 349.9 350.15 349.9 209.16 289.19 209.16 289.19 162.85 467.46 162.85" style="fill:none;"/></clipPath><linearGradient id="linear-gradient-3" x1="988.7474" y1="297.5366" x2="994.4833" y2="297.5366" gradientTransform="translate(23930.8197 -78180.4946) rotate(90) scale(79.1583)" gradientUnits="userSpaceOnUse"><stop offset="0" stop-color="#989a9d"/><stop offset=".1649" stop-color="#ecedef"/><stop offset=".2067" stop-color="#e4e5e7"/><stop offset=".2728" stop-color="#cdced1"/><stop offset=".3544" stop-color="#a8aaad"/><stop offset=".3862" stop-color="#989a9d"/><stop offset=".459" stop-color="#f6f6f6"/><stop offset=".7117" stop-color="#989a9d"/><stop offset=".8377" stop-color="#fff"/><stop offset="1" stop-color="#989a9d"/></linearGradient><clipPath id="clippath-3"><path d="m442.53,350.15l69.72-187.3h69.2l69.71,187.3h-59.42l-9-24.69h-71.78l-9,24.69h-59.43Zm125.54-66.12l-21.1-61.75-21.35,61.75h42.45Z" style="fill:none;"/></clipPath><linearGradient id="linear-gradient-4" x1="988.7474" y1="295.7789" x2="994.4833" y2="295.7789" gradientTransform="translate(23960.2006 -78180.4946) rotate(90) scale(79.1583)" gradientUnits="userSpaceOnUse"><stop offset="0" stop-color="#989a9d"/><stop offset=".1649" stop-color="#ecedef"/><stop offset=".2067" stop-color="#e4e5e7"/><stop offset=".2728" stop-color="#cdced1"/><stop offset=".3544" stop-color="#a8aaad"/><stop offset=".3862" stop-color="#989a9d"/><stop offset=".459" stop-color="#f6f6f6"/><stop offset=".7117" stop-color="#989a9d"/><stop offset=".8377" stop-color="#fff"/><stop offset="1" stop-color="#989a9d"/></linearGradient><clipPath id="clippath-4"><polygon points="721.67 350.15 664.82 350.15 664.82 162.85 721.67 162.85 788.82 252.9 788.82 162.85 845.68 162.85 845.68 350.15 798.34 350.15 721.67 249.81 721.67 350.15" style="fill:none;"/></clipPath><linearGradient id="linear-gradient-5" x1="988.7474" y1="293.6051" x2="994.4833" y2="293.6051" gradientTransform="translate(23996.5326 -78180.4946) rotate(90) scale(79.1583)" gradientUnits="userSpaceOnUse"><stop offset="0" stop-color="#989a9d"/><stop offset=".1649" stop-color="#ecedef"/><stop offset=".2067" stop-color="#e4e5e7"/><stop offset=".2728" stop-color="#cdced1"/><stop offset=".3544" stop-color="#a8aaad"/><stop offset=".3862" stop-color="#989a9d"/><stop offset=".459" stop-color="#f6f6f6"/><stop offset=".7117" stop-color="#989a9d"/><stop offset=".8377" stop-color="#fff"/><stop offset="1" stop-color="#989a9d"/></linearGradient><clipPath id="clippath-5"><rect x="877.86" y="162.85" width="56.85" height="187.3" style="fill:none;"/></clipPath><linearGradient id="linear-gradient-6" x1="988.7474" y1="292.0298" x2="994.4833" y2="292.0298" gradientTransform="translate(24022.8647 -78180.4946) rotate(90) scale(79.1583)" gradientUnits="userSpaceOnUse"><stop offset="0" stop-color="#989a9d"/><stop offset=".1649" stop-color="#ecedef"/><stop offset=".2067" stop-color="#e4e5e7"/><stop offset=".2728" stop-color="#cdced1"/><stop offset=".3544" stop-color="#a8aaad"/><stop offset=".3862" stop-color="#989a9d"/><stop offset=".459" stop-color="#f6f6f6"/><stop offset=".7117" stop-color="#989a9d"/><stop offset=".8377" stop-color="#fff"/><stop offset="1" stop-color="#989a9d"/></linearGradient><clipPath id="clippath-6"><polygon points="1024.24 162.85 1024.24 298.7 1029.39 303.84 1086.24 303.84 1091.4 298.7 1091.4 162.85 1148.75 162.85 1148.75 329.57 1128.18 350.15 987.45 350.15 966.88 329.57 966.88 162.85 1024.24 162.85" style="fill:none;"/></clipPath><linearGradient id="linear-gradient-7" x1="988.7474" y1="290.4492" x2="994.4833" y2="290.4492" gradientTransform="translate(24049.2826 -78180.4946) rotate(90) scale(79.1583)" gradientUnits="userSpaceOnUse"><stop offset="0" stop-color="#989a9d"/><stop offset=".1649" stop-color="#ecedef"/><stop offset=".2067" stop-color="#e4e5e7"/><stop offset=".2728" stop-color="#cdced1"/><stop offset=".3544" stop-color="#a8aaad"/><stop offset=".3862" stop-color="#989a9d"/><stop offset=".459" stop-color="#f6f6f6"/><stop offset=".7117" stop-color="#989a9d"/><stop offset=".8377" stop-color="#fff"/><stop offset="1" stop-color="#989a9d"/></linearGradient><clipPath id="clippath-7"><polygon points="1295.41 351.18 1236.24 249.3 1236.24 350.15 1179.64 350.15 1179.64 162.85 1250.13 162.85 1295.41 243.9 1340.68 162.85 1411.17 162.85 1411.17 350.15 1354.5801 350.15 1354.5801 249.3 1295.41 351.18" style="fill:none;"/></clipPath><linearGradient id="linear-gradient-8" x1="988.7474" y1="287.9711" x2="994.4833" y2="287.9711" gradientTransform="translate(24090.7045 -78180.4946) rotate(90) scale(79.1583)" gradientUnits="userSpaceOnUse"><stop offset="0" stop-color="#989a9d"/><stop offset=".1649" stop-color="#ecedef"/><stop offset=".2067" stop-color="#e4e5e7"/><stop offset=".2728" stop-color="#cdced1"/><stop offset=".3544" stop-color="#a8aaad"/><stop offset=".3862" stop-color="#989a9d"/><stop offset=".459" stop-color="#f6f6f6"/><stop offset=".7117" stop-color="#989a9d"/><stop offset=".8377" stop-color="#fff"/><stop offset="1" stop-color="#989a9d"/></linearGradient></defs><g style="clip-path:url(#clippath);"><rect y="162.85" width="178.28" height="187.3" style="fill:url(#linear-gradient);"/></g><g style="clip-path:url(#clippath-1);"><rect x="207.88" y="162.85" width="56.85" height="187.3" style="fill:url(#linear-gradient-2);"/></g><g style="clip-path:url(#clippath-2);"><rect x="289.19" y="162.85" width="178.28" height="187.3" style="fill:url(#linear-gradient-3);"/></g><g style="clip-path:url(#clippath-3);"><rect x="442.53" y="162.85" width="208.63" height="187.3" style="fill:url(#linear-gradient-4);"/></g><g style="clip-path:url(#clippath-4);"><rect x="664.82" y="162.85" width="180.86" height="187.3" style="fill:url(#linear-gradient-5);"/></g><g style="clip-path:url(#clippath-5);"><rect x="877.86" y="162.85" width="56.85" height="187.3" style="fill:url(#linear-gradient-6);"/></g><g style="clip-path:url(#clippath-6);"><rect x="966.88" y="162.85" width="181.87" height="187.3" style="fill:url(#linear-gradient-7);"/></g><g style="clip-path:url(#clippath-7);"><rect x="1179.64" y="162.85" width="231.53" height="188.33" style="fill:url(#linear-gradient-8);"/></g><polygon points="154.87 115.95 128.24 115.95 128.24 31.68 90.5 115.95 64.21 115.95 26.63 31.68 26.63 115.95 0 115.95 0 3.7 41.12 3.7 77.52 84.6 113.59 3.7 154.87 3.7 154.87 115.95" style="fill:#ffc429;"/><rect x="182.65" y="3.71" width="29.48" height="112.25" style="fill:#ffc429;"/><path d="m343.07,39.94c-3.54-5.73-5.22-7.75-9.27-10.96-6.57-4.88-16.51-7.92-26.63-7.92-24.94,0-41.79,15.51-41.79,38.42,0,23.59,16.85,39.1,42.3,39.1,18.37,0,30.17-6.74,37.58-21.07h30.17c-4.72,13.65-8.09,18.71-18.04,26.97-12.8,10.45-28.47,15-50.38,15-44.66,0-71.79-22.58-71.79-60.33,0-36.57,27.3-59.15,71.45-59.15,33.37,0,55.95,11.97,68.08,36.23l-31.68,3.71Z" style="fill:#ffc429;"/><path d="m424.6,115.95h-29.49V3.71h78.37c13.48,0,20.22,1.01,26.96,4.22,3.54,1.68,6.91,4.21,9.6,7.41,5.06,5.9,7.58,13.15,7.58,22.08,0,18.21-9.94,28.82-30.5,32.03l33.87,46.51h-33.71l-29.83-44.49h-32.87v44.48h.02Zm43.99-64.89c14.15,0,20.22-4.22,20.22-13.82,0-8.76-5.56-13.15-17.02-13.15h-47.19v26.97h43.99Z" style="fill:#ffc429;"/><path d="m605.15,119.49c-43.31,0-71.78-23.42-71.78-59.66C533.37,23.77,561.8399,0,605.15,0s71.79,23.76,71.79,59.83c.01,36.23-28.48,59.66-71.79,59.66m0-98.43c-25.44,0-41.62,15-41.62,38.76s16.18,38.77,41.62,38.77,41.63-15,41.63-38.77-16.18-38.76-41.63-38.76" style="fill:#ffc429;"/><polygon points="802.3 25.28 759.83 25.28 759.83 115.95 730.34 115.95 730.34 25.28 687.71 25.28 687.71 3.7 802.3 3.7 802.3 25.28" style="fill:#ffc429;"/><path d="m884.85,119.49c-43.31,0-71.78-23.42-71.78-59.66C813.07,23.77,841.54,0,884.8501,0s71.79,23.76,71.79,59.83c0,36.23-28.48,59.66-71.79,59.66m0-98.43c-25.44,0-41.63,15-41.63,38.76s16.18,38.77,41.63,38.77,41.63-15,41.63-38.77-16.18-38.76-41.63-38.76" style="fill:#ffc429;"/><path d="m1104.91,69.1c0,15.67-2.52,23.76-9.77,31.85-4.72,5.06-10.11,9.1-16.01,11.63-10.45,4.38-23.9301,6.91-37.24,6.91-23.59,0-42.8-6.57-53.25-18.54-7.42-8.43-9.78-16.18-9.78-31.85V3.7h29.49v66.57c0,11.63,3.37,18.37,11.46,22.25,6.07,2.86,14.32,4.72,22.08,4.72,13.15,0,24.6-4.38,29.49-10.95,2.87-4.05,4.05-8.6,4.05-16.02V3.7h29.49v65.4h-.01Z" style="fill:#ffc429;"/><path d="m1234.98,39.94c-3.54-5.73-5.22-7.75-9.27-10.96-6.5699-4.88-16.52-7.92-26.63-7.92-24.9399,0-41.79,15.51-41.79,38.42,0,23.59,16.85,39.1,42.3,39.1,18.37,0,30.17-6.74,37.58-21.07h30.17c-4.72,13.65-8.09,18.71-18.04,26.97-12.8,10.45-28.48,15-50.38,15-44.66,0-71.79-22.58-71.79-60.33,0-36.57,27.3-59.15,71.45-59.15,33.36,0,55.95,11.97,68.08,36.23l-31.6798,3.71Z" style="fill:#ffc429;"/><polygon points="1414.0899 115.95 1384.6 115.95 1384.6 68.42 1316.52 68.42 1316.52 115.95 1287.03 115.95 1287.03 3.7 1316.52 3.7 1316.52 46.68 1384.6 46.68 1384.6 3.7 1414.0899 3.7 1414.0899 115.95" style="fill:#ffc429;"/><path d="m1448.8301,46.06c-12.28,0-21.84-9.87-21.84-21.85s9.6801-21.97,21.97-21.97c12.28,0,21.85,9.86,21.85,21.85-.01,11.99-9.6901,21.97-21.98,21.97m.13-41.94c-11.38,0-19.97,9.08-19.97,20.1,0,11.01,8.54,19.97,19.84,19.97,11.38,0,19.98-9.08,19.98-20.09,0-11.02-8.54-19.98-19.85-19.98m4.0499,21.61l6.96,9.02h-4.12l-6.47-8.47h-5.76v8.47h-3.3199V12.29h10.04c4.97,0,8.48,2.6,8.48,6.78,0,3.69-2.42,5.87-5.8101,6.66m-2.78-10.41h-6.6v7.99h6.42c3.15,0,5.33-1.45,5.33-4.05-.01-2.49-1.95-3.94-5.15-3.94" style="fill:#ffc429;"/><path d="m1447.8301,206.28c-12.28,0-21.84-9.87-21.84-21.85s9.6801-21.97,21.97-21.97c12.28,0,21.85,9.86,21.85,21.85-.01,11.99-9.6901,21.97-21.98,21.97m.13-41.94c-11.38,0-19.97,9.08-19.97,20.1,0,11.01,8.54,19.97,19.84,19.97,11.38,0,19.98-9.08,19.98-20.09,0-11.02-8.54-19.98-19.85-19.98m4.0499,21.61l6.96,9.02h-4.12l-6.47-8.47h-5.76v8.47h-3.3199v-22.46h10.04c4.97,0,8.48,2.6,8.48,6.78,0,3.69-2.42,5.87-5.8101,6.66m-2.78-10.41h-6.6v7.99h6.42c3.15,0,5.33-1.45,5.33-4.05-.01-2.49-1.95-3.94-5.15-3.94" style="fill:#c4c4c4;"/></svg>