<?xml version="1.0" encoding="utf-8"?>
<!-- Generator: Adobe Illustrator 26.3.1, SVG Export Plug-In . SVG Version: 6.00 Build 0)  -->
<svg version="1.1" id="icons" xmlns="http://www.w3.org/2000/svg" xmlns:xlink="http://www.w3.org/1999/xlink" x="0px" y="0px"
	 viewBox="0 0 512 512" style="enable-background:new 0 0 512 512;" xml:space="preserve">
<path d="M412.19,118.66c-3.24-1.67-6.39-3.51-9.45-5.5c-8.89-5.88-17.04-12.8-24.27-20.62c-18.1-20.71-24.86-41.72-27.35-56.43h0.1
	C349.14,23.9,350,16,350.13,16h-82.44v318.78c0,4.28,0,8.51-0.18,12.69c0,0.52-0.05,1-0.08,1.56c0,0.23,0,0.47-0.05,0.71
	c0,0.06,0,0.12,0,0.18c-1.76,23.23-14.97,44.05-35.22,55.56c-10.39,5.91-22.15,9.02-34.11,9c-38.41,0-69.54-31.32-69.54-70
	s31.13-70,69.54-70c7.27-0.01,14.5,1.14,21.41,3.39l0.1-83.94c-42.43-5.48-85.22,7.04-118,34.52
	c-14.21,12.35-26.16,27.08-35.3,43.53c-3.48,6-16.61,30.11-18.2,69.24c-1,22.21,5.67,45.22,8.85,54.73v0.2
	c2,5.6,9.75,24.71,22.38,40.82c10.18,12.92,22.22,24.27,35.71,33.69v-0.2l0.2,0.2c39.91,27.12,84.16,25.34,84.16,25.34
	c7.66-0.31,33.32,0,62.46-13.81c32.32-15.31,50.72-38.12,50.72-38.12c11.75-13.63,21.1-29.16,27.64-45.93
	c7.46-19.61,9.95-43.13,9.95-52.53V176.49c1,0.6,14.32,9.41,14.32,9.41s19.19,12.3,49.13,20.31c21.48,5.7,50.42,6.9,50.42,6.9
	v-81.84C453.86,132.37,433.27,129.17,412.19,118.66z"/>
</svg>
